#!OML:ASF H:\Terrain\Patient Classification 1\Animal1\Tuesday\Animal1.ASF
:FULLY-SPECIFIED
:DEGREES
1362
root 5.77356 16.0997 -11.9744 -195.284 -57.0524 206.669
lowerback 8.55479 -1.59639 2.13047
upperback 2.3049 -2.0586 5.40573
thorax -2.27361 -1.15181 4.63937
lowerneck -3.97682 -0.788146 -4.50882
upperneck -3.08642 -1.0044 12.1464
head -0.187928 -0.577641 4.84325
rclavicle 7.0171e-014 1.63003e-014
rhumerus 0.112937 8.44927 37.2881
rradius 23.3199
rwrist -14.5815
rhand -42.0073 20.4159
rfingers 7.12502
rthumb -14.9022 -9.02805
lclavicle 7.0171e-014 1.63003e-014
lhumerus -1.42708 12.5741 -20.5302
lradius 23.9535
lwrist -27.7803
lhand 3.18394 68.5368
lfingers 7.12502
lthumb 28.6363 -456.363
rfemur -59.3084 -18.5344 15.376
rtibia 91.1331
rfoot -10.7382 -8.569
rtoes -14.0246
lfemur -31.6774 11.0466 -15.6892
ltibia 44.5783
lfoot -21.9565 11.6276
ltoes 30.3455
1363
root 5.74219 16.0566 -12.0437 -196.215 -58.0271 207.493
lowerback 8.76824 -1.6817 1.99456
upperback 2.33017 -2.16815 5.29616
thorax -2.35832 -1.20199 4.6207
lowerneck -4.94666 -1.05277 -5.86753
upperneck -1.95848 -1.39808 14.2519
head 0.405985 -0.70491 5.23148
rclavicle 8.18993e-014 -3.81667e-014
rhumerus -0.399004 8.88991 35.8718
rradius 23.4345
rwrist -15.3393
rhand -42.5224 21.1608
rfingers 7.12502
rthumb -15.3984 -8.24571
lclavicle 8.18993e-014 -3.81667e-014
lhumerus -1.40844 11.7326 -20.0025
lradius 23.9413
lwrist -26.9329
lhand 4.29784 67.9889
lfingers 7.12502
lthumb 29.7 -455.63
rfemur -59.0303 -17.8311 15.1532
rtibia 90.0291
rfoot -9.7823 -7.29589
rtoes 1.91761
lfemur -31.7978 11.1157 -15.5214
ltibia 45.1099
lfoot -21.8133 10.6442
ltoes 28.4898
1364
root 5.7073 16.0304 -12.1081 -196.774 -59.0058 207.744
lowerback 9.0164 -1.68768 1.51287
upperback 2.40059 -2.20157 5.10452
thorax -2.41104 -1.21106 4.70383
lowerneck -4.56185 -1.14422 -5.38459
upperneck -2.31733 -1.52364 14.1182
head 0.245115 -0.799546 5.10802
rclavicle 9.12422e-014 7.15625e-015
rhumerus -1.05465 8.81871 34.2632
rradius 23.5218
rwrist -15.6583
rhand -42.6367 21.913
rfingers 7.12502
rthumb -15.5085 -7.48501
lclavicle 9.12422e-014 7.15625e-015
lhumerus -1.30937 9.90072 -19.4541
lradius 24.0161
lwrist -25.1723
lhand 5.19371 68.0672
lfingers 7.12502
lthumb 30.5547 -455.553
rfemur -58.7373 -16.9776 14.572
rtibia 88.8574
rfoot -11.6874 -5.6052
rtoes 13.1019
lfemur -31.6902 10.8777 -15.6204
ltibia 45.6721
lfoot -22.084 10.4393
ltoes 26.487
1365
root 5.66853 16.0195 -12.1711 -197.59 -59.9004 208.443
lowerback 9.11174 -1.73926 1.27581
upperback 2.37667 -2.27654 4.94417
thorax -2.48147 -1.24061 4.68202
lowerneck -4.10955 -1.23406 -5.17062
upperneck -2.48711 -1.65636 14.3605
head 0.135431 -0.89399 5.14687
rclavicle 1.11319e-014 1.74931e-014
rhumerus -1.59211 9.76531 32.6885
rradius 23.6395
rwrist -16.8521
rhand -43.089 22.2646
rfingers 7.12502
rthumb -15.9441 -7.09918
lclavicle 1.11319e-014 1.74931e-014
lhumerus -1.31214 8.18186 -18.8662
lradius 24.2558
lwrist -23.9509
lhand 6.30221 68.2043
lfingers 7.12502
lthumb 31.6112 -455.487
rfemur -58.5895 -16.0768 14.4514
rtibia 87.5001
rfoot -12.5656 -4.88616
rtoes 18.5584
lfemur -31.6723 10.6165 -15.508
ltibia 46.1474
lfoot -22.1506 10.7947
ltoes 24.3544
1366
root 5.62993 16.0082 -12.2372 -198.598 -60.7672 209.452
lowerback 9.1042 -1.81223 1.09665
upperback 2.38519 -2.38557 4.89359
thorax -2.45587 -1.29186 4.74121
lowerneck -4.24214 -1.40978 -5.84989
upperneck -2.14036 -1.91866 15.3384
head 0.307068 -1.00822 5.55835
rclavicle 4.96962e-014 -3.26007e-014
rhumerus -2.09542 11.2162 31.2079
rradius 23.7303
rwrist -18.4448
rhand -43.422 22.7697
rfingers 7.12502
rthumb -16.2647 -6.56808
lclavicle 4.96962e-014 -3.26007e-014
lhumerus -1.59737 7.14261 -18.0344
lradius 24.4993
lwrist -23.4326
lhand 6.78149 67.9521
lfingers 7.12502
lthumb 32.0677 -455.144
rfemur -58.6 -15.2835 14.7024
rtibia 86.0767
rfoot -12.6425 -5.29273
rtoes 13.6891
lfemur -31.7676 10.3173 -15.2677
ltibia 46.595
lfoot -22.0091 11.1666
ltoes 21.6409
1367
root 5.59293 15.9948 -12.3046 -199.543 -61.6557 210.259
lowerback 9.21009 -1.86882 0.806332
upperback 2.47058 -2.48411 4.77568
thorax -2.41187 -1.33839 4.79431
lowerneck -3.95529 -1.58739 -5.57768
upperneck -2.34774 -2.16244 15.4159
head 0.22388 -1.154 5.53366
rclavicle -4.21423e-014 7.55382e-014
rhumerus -2.72376 11.6509 29.4212
rradius 23.6431
rwrist -18.6839
rhand -42.8095 23.3798
rfingers 7.12502
rthumb -15.6749 -6.00529
lclavicle -4.21423e-014 7.55382e-014
lhumerus -1.76764 6.6881 -17.0149
lradius 24.5484
lwrist -23.3576
lhand 6.0302 67.4593
lfingers 7.12502
lthumb 31.3521 -454.793
rfemur -58.5332 -14.5428 14.8721
rtibia 84.6065
rfoot -12.6985 -5.63359
rtoes 7.29317
lfemur -31.7537 9.89288 -15.0881
ltibia 47.0853
lfoot -22.2301 11.064
ltoes 19.8905
